<?xml version="1.0" encoding="utf-8"?>
<!-- Generator: Adobe Illustrator 24.0.3, SVG Export Plug-In . SVG Version: 6.00 Build 0)  -->
<svg version="1.1" id="Calque_1" xmlns="http://www.w3.org/2000/svg" xmlns:xlink="http://www.w3.org/1999/xlink" x="0px" y="0px"
	 viewBox="0 0 179 44" style="enable-background:new 0 0 179 44;" xml:space="preserve">
<style type="text/css">
	.st0{enable-background:new    ;}
	.st1{fill:#FFFFFF;}
	.st2{fill:none;stroke:#FFFFFF;stroke-width:1;stroke-miterlimit:9.9997;}
	.st3{fill:none;stroke:#FFFFFF;stroke-miterlimit:10;}
	.st4{fill-rule:evenodd;clip-rule:evenodd;fill:#FF0000;}
</style>
<g>
	<g class="st0">
		<path class="st1" d="M77.9,22.8c0.1,0.3,0.1,0.6,0.2,0.9L61.9,28c1.5,3.9,5.3,5.8,9.4,4.7c2.9-0.8,4.8-2.7,5.3-4.9l1.8,0.5
			c-0.8,2.8-3.2,5.2-6.7,6.1c-5.5,1.5-10.5-1.4-11.9-6.8c-1.4-5.3,1.3-10.4,6.8-11.8C72,14.3,76.6,17.9,77.9,22.8z M61.4,26.3
			l14.4-3.9c-1.6-4.3-5.3-5.9-8.8-4.9C62.9,18.6,60.7,22.2,61.4,26.3z"/>
	</g>
	<g class="st0">
		<path class="st2" d="M77.9,22.8c0.1,0.3,0.1,0.6,0.2,0.9L61.9,28c1.5,3.9,5.3,5.8,9.4,4.7c2.9-0.8,4.8-2.7,5.3-4.9l1.8,0.5
			c-0.8,2.8-3.2,5.2-6.7,6.1c-5.5,1.5-10.5-1.4-11.9-6.8c-1.4-5.3,1.3-10.4,6.8-11.8C72,14.3,76.6,17.9,77.9,22.8z M61.4,26.3
			l14.4-3.9c-1.6-4.3-5.3-5.9-8.8-4.9C62.9,18.6,60.7,22.2,61.4,26.3z"/>
	</g>
	<g class="st0">
		<path class="st1" d="M99.7,22.8c0.1,0.3,0.1,0.6,0.2,0.9L83.7,28c1.5,3.9,5.3,5.8,9.4,4.7c2.9-0.8,4.8-2.7,5.3-4.9l1.8,0.5
			c-0.8,2.8-3.2,5.2-6.7,6.1C88,35.9,83,33,81.6,27.6c-1.4-5.3,1.3-10.4,6.8-11.8C93.8,14.3,98.4,17.9,99.7,22.8z M83.2,26.2
			l14.4-3.9c-1.6-4.3-5.3-5.9-8.8-4.9C84.7,18.5,82.5,22.2,83.2,26.2z"/>
	</g>
	<g class="st0">
		<path class="st2" d="M99.7,22.8c0.1,0.3,0.1,0.6,0.2,0.9L83.7,28c1.5,3.9,5.3,5.8,9.4,4.7c2.9-0.8,4.8-2.7,5.3-4.9l1.8,0.5
			c-0.8,2.8-3.2,5.2-6.7,6.1C88,35.9,83,33,81.6,27.6c-1.4-5.3,1.3-10.4,6.8-11.8C93.8,14.3,98.4,17.9,99.7,22.8z M83.2,26.2
			l14.4-3.9c-1.6-4.3-5.3-5.9-8.8-4.9C84.7,18.5,82.5,22.2,83.2,26.2z"/>
	</g>
	<g class="st0">
		<path class="st1" d="M137.1,22.8c0.1,0.3,0.1,0.6,0.2,0.9L121,28.1c1.5,3.9,5.3,5.8,9.4,4.7c2.9-0.8,4.8-2.7,5.3-4.9l1.8,0.5
			c-0.8,2.8-3.2,5.2-6.7,6.1c-5.5,1.5-10.5-1.4-11.9-6.8c-1.4-5.3,1.3-10.4,6.8-11.8C131.1,14.3,135.7,17.9,137.1,22.8z M120.6,26.3
			l14.4-3.9c-1.6-4.3-5.3-5.9-8.8-4.9C122.1,18.6,119.8,22.2,120.6,26.3z"/>
	</g>
	<g class="st0">
		<path class="st2" d="M137.1,22.8c0.1,0.3,0.1,0.6,0.2,0.9L121,28.1c1.5,3.9,5.3,5.8,9.4,4.7c2.9-0.8,4.8-2.7,5.3-4.9l1.8,0.5
			c-0.8,2.8-3.2,5.2-6.7,6.1c-5.5,1.5-10.5-1.4-11.9-6.8c-1.4-5.3,1.3-10.4,6.8-11.8C131.1,14.3,135.7,17.9,137.1,22.8z M120.6,26.3
			l14.4-3.9c-1.6-4.3-5.3-5.9-8.8-4.9C122.1,18.6,119.8,22.2,120.6,26.3z"/>
	</g>
	<g class="st0">
		<path class="st1" d="M158.9,22.8c0.1,0.3,0.1,0.6,0.2,0.9l-16.2,4.3c1.5,3.9,5.3,5.8,9.4,4.7c2.9-0.8,4.8-2.7,5.3-4.9l1.8,0.5
			c-0.8,2.8-3.2,5.2-6.7,6.1c-5.5,1.5-10.5-1.4-11.9-6.8c-1.4-5.3,1.3-10.4,6.8-11.8C153,14.3,157.6,17.9,158.9,22.8z M142.4,26.3
			l14.4-3.9c-1.6-4.3-5.3-5.9-8.8-4.9C143.9,18.6,141.7,22.2,142.4,26.3z"/>
	</g>
	<g class="st0">
		<path class="st2" d="M158.9,22.8c0.1,0.3,0.1,0.6,0.2,0.9l-16.2,4.3c1.5,3.9,5.3,5.8,9.4,4.7c2.9-0.8,4.8-2.7,5.3-4.9l1.8,0.5
			c-0.8,2.8-3.2,5.2-6.7,6.1c-5.5,1.5-10.5-1.4-11.9-6.8c-1.4-5.3,1.3-10.4,6.8-11.8C153,14.3,157.6,17.9,158.9,22.8z M142.4,26.3
			l14.4-3.9c-1.6-4.3-5.3-5.9-8.8-4.9C143.9,18.6,141.7,22.2,142.4,26.3z"/>
	</g>
	<g class="st0">
		<path class="st1" d="M115.9,34.6l-10.1-9.4v9.4h-1.9V8h1.9v16.2l9.6-8.6h2.7l-10.2,9.1l10.6,9.9H115.9z"/>
	</g>
	<g class="st0">
		<path class="st3" d="M115.9,34.6l-10.1-9.4v9.4h-1.9V8h1.9v16.2l9.6-8.6h2.7l-10.2,9.1l10.6,9.9H115.9z"/>
	</g>
	<g class="st0">
		<path class="st1" d="M58,32.7v1.9H43.5v-1.3l11.4-15.9h-11v-1.9h13.7v1.3L46.2,32.7H58z"/>
	</g>
	<g class="st0">
		<path class="st3" d="M58,32.7v1.9H43.5v-1.3l11.4-15.9h-11v-1.9h13.7v1.3L46.2,32.7H58z"/>
	</g>
	<g class="st0">
		<path class="st1" d="M175.4,32.7v1.9h-14.4v-1.3l11.4-15.9h-11v-1.9H175v1.3l-11.4,15.9H175.4z"/>
	</g>
	<g class="st0">
		<path class="st3" d="M175.4,32.7v1.9h-14.4v-1.3l11.4-15.9h-11v-1.9H175v1.3l-11.4,15.9H175.4z"/>
	</g>
	<path class="st1" d="M24,19.9l-6.8-2.5l-6.8,2.5C10.2,20,10,20.2,10,20.4l0,0c0,0.3,0.2,0.5,0.5,0.5h0.8v2.4c0,1.6,0.5,3.1,1.7,4.3
		l0,0c2.3,2.3,6.1,2.3,8.4,0l0,0c1.2-1.2,1.8-2.8,1.7-4.5v-2.3h0.7c0.3,0,0.5-0.2,0.5-0.5l0,0C24.4,20.1,24.2,19.9,24,19.9z
		 M17,25.6h-1.9v-1.9H17V25.6z M17,23.1h-1.9v-1.9H17V23.1z M19.5,25.6h-1.9v-1.9h1.9V25.6z M19.5,23.1h-1.9v-1.9h1.9V23.1z"/>
	<g>
		<path class="st4" d="M19.9,23.8V26h-2.2v-2.2H19.9z M17.7,20.9h2.2v2.2h-2.2V20.9z M17,23.8V26h-2.2v-2.2H17z M14.8,20.9H17v2.2
			h-2.2V20.9z"/>
	</g>
	<path class="st1" d="M27.9,12.3L27.9,12.3C22,6.5,12.5,6.5,6.7,12.4l0,0c-5.7,5.8-5.7,15.2,0,21l0,0c1.1,1.1,10.6,8.8,10.6,8.8
		c9-7.2,8.8-7,10.6-8.7l0,0C33.8,27.7,33.8,18.2,27.9,12.3z M26.1,31.9L26.1,31.9c-0.9,0.9-8.8,7.2-8.8,7.2s-8-6.4-8.9-7.3l0,0
		c-4.8-4.8-4.7-12.6,0-17.4l0,0c4.8-4.9,12.7-4.9,17.6-0.1l0,0C31,19.1,31,27,26.1,31.9z"/>
</g>
</svg>
