<?xml version="1.0" encoding="utf-8"?>
<!-- Generator: Adobe Illustrator 24.0.3, SVG Export Plug-In . SVG Version: 6.00 Build 0)  -->
<svg version="1.1" id="Calque_1" xmlns="http://www.w3.org/2000/svg" xmlns:xlink="http://www.w3.org/1999/xlink" x="0px" y="0px"
	 viewBox="0 0 179 44" style="enable-background:new 0 0 179 44;" xml:space="preserve">
<style type="text/css">
	.st0{stroke:#000000;stroke-miterlimit:10;}
	.st1{fill:#FFFFFF;}
	.st2{fill:#FF0000;}
	.st3{fill-rule:evenodd;clip-rule:evenodd;fill:#FFFFFF;}
</style>
<g>
	<g>
		<path class="st0" d="M76.5,21.4c0.1,0.3,0.1,0.6,0.2,0.9l-16.4,4.4c1.5,4,5.4,5.8,9.5,4.7c3-0.8,4.8-2.8,5.4-5l1.8,0.5
			c-0.8,2.9-3.2,5.2-6.8,6.2c-5.6,1.5-10.6-1.4-12-6.9c-1.4-5.3,1.3-10.5,6.8-11.9C70.6,12.8,75.2,16.5,76.5,21.4z M59.9,24.9
			L74.4,21c-1.6-4.3-5.3-5.9-8.9-5C61.4,17.1,59.2,20.8,59.9,24.9z"/>
	</g>
	<g>
		<path class="st0" d="M98.6,21.4c0.1,0.3,0.1,0.6,0.2,0.9l-16.4,4.4c1.5,4,5.4,5.8,9.5,4.7c3-0.8,4.8-2.8,5.4-5l1.8,0.5
			c-0.8,2.9-3.2,5.2-6.8,6.2c-5.6,1.5-10.6-1.4-12-6.9c-1.4-5.3,1.3-10.5,6.8-11.9C92.6,12.8,97.2,16.4,98.6,21.4z M81.9,24.9
			L96.4,21c-1.6-4.3-5.3-5.9-8.9-5C83.4,17.1,81.2,20.8,81.9,24.9z"/>
	</g>
	<ellipse class="st1" cx="38.6" cy="19.9" rx="1" ry="1"/>
	<g>
		<path class="st0" d="M136.2,21.4c0.1,0.3,0.1,0.6,0.2,0.9L120,26.7c1.5,4,5.4,5.8,9.5,4.7c3-0.8,4.8-2.8,5.4-5l1.8,0.5
			c-0.8,2.9-3.2,5.2-6.8,6.2c-5.6,1.5-10.6-1.4-12-6.9c-1.4-5.3,1.3-10.5,6.8-11.9C130.2,12.9,134.9,16.5,136.2,21.4z M119.6,24.9
			l14.5-3.9c-1.6-4.3-5.3-5.9-8.9-5C121.1,17.2,118.8,20.8,119.6,24.9z"/>
	</g>
	<g>
		<path class="st0" d="M158.3,21.4c0.1,0.3,0.1,0.6,0.2,0.9l-16.4,4.4c1.5,4,5.4,5.8,9.5,4.7c3-0.8,4.8-2.8,5.4-5l1.8,0.5
			c-0.8,2.9-3.2,5.2-6.8,6.2c-5.6,1.5-10.6-1.4-12-6.9c-1.4-5.3,1.3-10.5,6.8-11.9C152.3,12.9,156.9,16.5,158.3,21.4z M141.6,24.9
			l14.5-3.9c-1.6-4.3-5.3-5.9-8.9-5C143.1,17.2,140.9,20.8,141.6,24.9z"/>
	</g>
	<g>
		<path class="st0" d="M114.8,33.3l-10.2-9.4v9.4h-1.9V6.5h1.9v16.4l9.7-8.7h2.7l-10.3,9.2l10.7,10H114.8z"/>
	</g>
	<g>
		<path class="st0" d="M56.5,31.4v1.9H41.9V32l11.5-16H42.3v-1.9h13.8v1.3l-11.5,16H56.5z"/>
	</g>
	<g>
		<path class="st0" d="M174.9,31.4v1.9h-14.6V32l11.5-16h-11.1v-1.9h13.8v1.3l-11.5,16H174.9z"/>
	</g>
	<path class="st2" d="M24.9,18.1l-6.9-2.5l-6.8,2.5c-0.2,0.1-0.4,0.3-0.4,0.5v0c0,0.3,0.2,0.5,0.5,0.5h0.8l0,2.4
		c0,1.6,0.5,3.2,1.7,4.4l0,0c2.3,2.3,6.1,2.3,8.4,0v0c1.2-1.2,1.8-2.9,1.7-4.5l0-2.3h0.7c0.3,0,0.5-0.2,0.5-0.5l0,0
		C25.3,18.4,25.1,18.2,24.9,18.1z M17.9,23.9h-1.9V22h1.9V23.9z M17.9,21.4h-1.9v-1.9h1.9V21.4z M20.3,23.9h-1.9V22h1.9V23.9z
		 M20.3,21.4h-1.9v-1.9h1.9V21.4z"/>
	<g>
		<path class="st3" d="M20.8,22.1v2.3h-2.3v-2.3H20.8z M18.5,19.2h2.3v2.3h-2.3V19.2z M17.9,22.1v2.3h-2.3v-2.3H17.9z M15.6,19.2
			h2.3v2.3h-2.3V19.2z"/>
	</g>
	<path d="M28.8,10.6L28.8,10.6c-6-5.9-15.5-5.9-21.4,0.1l0,0c-5.8,5.9-5.8,15.3,0,21.2l0,0c1.1,1.1,10.7,8.9,10.7,8.9
		c9.1-7.3,8.9-7,10.7-8.8l0,0C34.8,26.1,34.8,16.5,28.8,10.6z M27,30.3L27,30.3c-0.9,0.9-8.9,7.3-8.9,7.3s-8-6.5-8.9-7.4l0,0
		c-4.8-4.9-4.8-12.7,0-17.6l0,0c4.9-4.9,12.8-5,17.8-0.1l0,0C31.9,17.4,31.9,25.4,27,30.3z"/>
</g>
</svg>
